<mxfile host="app.diagrams.net" modified="2023-12-03T00:57:27.073Z" agent="Mozilla/5.0 (Windows NT 10.0; Win64; x64) AppleWebKit/537.36 (KHTML, like Gecko) Chrome/119.0.0.0 Safari/537.36 Edg/119.0.0.0" etag="NJX-gDhk8Vbux_cS7aAt" version="22.1.5" type="github">
  <diagram name="ページ1" id="ntLUQj3zXpR2GrfyCho_">
    <mxGraphModel dx="2026" dy="1192" grid="1" gridSize="10" guides="1" tooltips="1" connect="1" arrows="1" fold="1" page="1" pageScale="1" pageWidth="827" pageHeight="1169" math="0" shadow="0">
      <root>
        <mxCell id="0" />
        <mxCell id="1" parent="0" />
        <mxCell id="PO0unFIX-wsbpKIqG6Li-25" value="" style="rounded=0;whiteSpace=wrap;html=1;" parent="1" vertex="1">
          <mxGeometry x="51.11" y="417" width="739.45" height="630" as="geometry" />
        </mxCell>
        <mxCell id="PO0unFIX-wsbpKIqG6Li-26" value="" style="rounded=1;whiteSpace=wrap;html=1;arcSize=3;fillColor=none;" parent="1" vertex="1">
          <mxGeometry x="70" y="450" width="380" height="579" as="geometry" />
        </mxCell>
        <mxCell id="PO0unFIX-wsbpKIqG6Li-27" value="" style="group" parent="1" vertex="1" connectable="0">
          <mxGeometry x="244" y="698" width="170" height="115" as="geometry" />
        </mxCell>
        <mxCell id="PO0unFIX-wsbpKIqG6Li-28" value="" style="rounded=0;whiteSpace=wrap;html=1;labelBackgroundColor=#CCE5FF;noLabel=1;fillColor=#d5e8d4;strokeColor=none;" parent="PO0unFIX-wsbpKIqG6Li-27" vertex="1">
          <mxGeometry x="1.0914093549372954" y="86" width="168.90859064506265" height="15" as="geometry" />
        </mxCell>
        <mxCell id="PO0unFIX-wsbpKIqG6Li-29" value="" style="rounded=0;whiteSpace=wrap;html=1;labelBackgroundColor=#CCE5FF;noLabel=1;fillColor=#e1d5e7;strokeColor=none;" parent="PO0unFIX-wsbpKIqG6Li-27" vertex="1">
          <mxGeometry x="1.0914093549372954" y="101" width="168.90859064506265" height="14" as="geometry" />
        </mxCell>
        <mxCell id="PO0unFIX-wsbpKIqG6Li-30" value="" style="rounded=0;whiteSpace=wrap;html=1;labelBackgroundColor=#CCE5FF;noLabel=1;fillColor=#fff2cc;strokeColor=none;" parent="PO0unFIX-wsbpKIqG6Li-27" vertex="1">
          <mxGeometry width="169.99999999999997" height="86" as="geometry" />
        </mxCell>
        <mxCell id="PO0unFIX-wsbpKIqG6Li-31" value="" style="rounded=0;whiteSpace=wrap;html=1;labelBackgroundColor=#CCE5FF;noLabel=1;fillColor=#f8cecc;strokeColor=none;" parent="1" vertex="1">
          <mxGeometry x="244" y="756" width="170" height="14" as="geometry" />
        </mxCell>
        <mxCell id="PO0unFIX-wsbpKIqG6Li-32" value="" style="rounded=0;whiteSpace=wrap;html=1;labelBackgroundColor=#CCE5FF;noLabel=1;fillColor=#f8cecc;strokeColor=none;" parent="1" vertex="1">
          <mxGeometry x="240.84" y="541" width="170" height="14" as="geometry" />
        </mxCell>
        <mxCell id="PO0unFIX-wsbpKIqG6Li-33" value="" style="rounded=0;whiteSpace=wrap;html=1;labelBackgroundColor=#CCE5FF;noLabel=1;fillColor=#dae8fc;strokeColor=none;" parent="1" vertex="1">
          <mxGeometry x="240.84" y="510" width="170" height="15" as="geometry" />
        </mxCell>
        <mxCell id="PO0unFIX-wsbpKIqG6Li-34" value="" style="rounded=0;whiteSpace=wrap;html=1;labelBackgroundColor=#CCE5FF;noLabel=1;fillColor=#bac8d3;strokeColor=none;" parent="1" vertex="1">
          <mxGeometry x="240.84" y="525" width="170" height="16" as="geometry" />
        </mxCell>
        <mxCell id="PO0unFIX-wsbpKIqG6Li-35" value="" style="rounded=0;whiteSpace=wrap;html=1;labelBackgroundColor=#CCE5FF;noLabel=1;fillColor=#d5e8d4;strokeColor=none;" parent="1" vertex="1">
          <mxGeometry x="540" y="779" width="170" height="40" as="geometry" />
        </mxCell>
        <mxCell id="PO0unFIX-wsbpKIqG6Li-36" value="" style="rounded=0;whiteSpace=wrap;html=1;labelBackgroundColor=#CCE5FF;noLabel=1;fillColor=#f8cecc;strokeColor=none;" parent="1" vertex="1">
          <mxGeometry x="540" y="589" width="146" height="75" as="geometry" />
        </mxCell>
        <mxCell id="PO0unFIX-wsbpKIqG6Li-37" value="仮想コンテナ(WEB)" style="swimlane;whiteSpace=wrap;html=1;fillColor=#f5f5f5;fontColor=#333333;strokeColor=#666666;" parent="1" vertex="1">
          <mxGeometry x="90" y="469" width="340" height="160" as="geometry" />
        </mxCell>
        <mxCell id="PO0unFIX-wsbpKIqG6Li-38" value="Django" style="rounded=1;whiteSpace=wrap;html=1;fontColor=#FFFFFF;strokeColor=#000000;fillColor=#000000;" parent="PO0unFIX-wsbpKIqG6Li-37" vertex="1">
          <mxGeometry x="12.676409502816512" y="230" width="128.98359049718349" height="30" as="geometry" />
        </mxCell>
        <mxCell id="PO0unFIX-wsbpKIqG6Li-39" value="NGINX" style="rounded=1;whiteSpace=wrap;html=1;fillColor=#000000;fontColor=#FFFFFF;" parent="PO0unFIX-wsbpKIqG6Li-37" vertex="1">
          <mxGeometry x="10.000000000000057" y="40" width="128.98359049718349" height="30" as="geometry" />
        </mxCell>
        <mxCell id="PO0unFIX-wsbpKIqG6Li-40" value="uWSGI" style="rounded=1;whiteSpace=wrap;html=1;fillColor=#000000;fontColor=#FFFFFF;" parent="PO0unFIX-wsbpKIqG6Li-37" vertex="1">
          <mxGeometry x="12.676409502816512" y="272" width="128.98359049718349" height="30" as="geometry" />
        </mxCell>
        <mxCell id="PO0unFIX-wsbpKIqG6Li-41" value="python" style="rounded=1;whiteSpace=wrap;html=1;fillColor=#000000;fontColor=#FFFFFF;" parent="PO0unFIX-wsbpKIqG6Li-37" vertex="1">
          <mxGeometry x="12.676409502816512" y="312" width="128.98359049718349" height="30" as="geometry" />
        </mxCell>
        <mxCell id="PO0unFIX-wsbpKIqG6Li-42" value="PostgreSQL" style="rounded=1;whiteSpace=wrap;html=1;fillColor=#000000;fontColor=#FFFFFF;" parent="PO0unFIX-wsbpKIqG6Li-37" vertex="1">
          <mxGeometry x="12.676409502816512" y="420" width="128.98359049718349" height="30" as="geometry" />
        </mxCell>
        <mxCell id="PO0unFIX-wsbpKIqG6Li-43" value="仮想コンテナ(AP)" style="swimlane;whiteSpace=wrap;html=1;fillColor=#f5f5f5;fontColor=#333333;strokeColor=#666666;" parent="1" vertex="1">
          <mxGeometry x="90" y="669" width="340" height="150" as="geometry" />
        </mxCell>
        <mxCell id="PO0unFIX-wsbpKIqG6Li-44" value="仮想コンテナ(DB)" style="swimlane;whiteSpace=wrap;html=1;fillColor=#f5f5f5;fontColor=#333333;strokeColor=#666666;" parent="1" vertex="1">
          <mxGeometry x="90" y="859" width="340" height="150" as="geometry" />
        </mxCell>
        <mxCell id="PO0unFIX-wsbpKIqG6Li-45" value="Docker" style="text;html=1;strokeColor=none;fillColor=none;align=center;verticalAlign=middle;whiteSpace=wrap;rounded=0;fontStyle=1;fontSize=16;" parent="1" vertex="1">
          <mxGeometry x="71.11" y="424" width="68.89" height="30" as="geometry" />
        </mxCell>
        <mxCell id="PO0unFIX-wsbpKIqG6Li-46" value="EC2インスタンス" style="text;html=1;strokeColor=none;fillColor=none;align=center;verticalAlign=middle;whiteSpace=wrap;rounded=0;fontStyle=1;fontColor=#000000;fontSize=16;" parent="1" vertex="1">
          <mxGeometry x="353.33000000000004" y="393" width="134.45" height="30" as="geometry" />
        </mxCell>
        <mxCell id="PO0unFIX-wsbpKIqG6Li-47" value="" style="endArrow=classic;startArrow=classic;html=1;rounded=0;entryX=0.25;entryY=1;entryDx=0;entryDy=0;exitX=0.25;exitY=0;exitDx=0;exitDy=0;strokeWidth=3;" parent="1" source="PO0unFIX-wsbpKIqG6Li-43" target="PO0unFIX-wsbpKIqG6Li-37" edge="1">
          <mxGeometry width="50" height="50" relative="1" as="geometry">
            <mxPoint x="380" y="729" as="sourcePoint" />
            <mxPoint x="430" y="679" as="targetPoint" />
          </mxGeometry>
        </mxCell>
        <mxCell id="PO0unFIX-wsbpKIqG6Li-48" value="" style="endArrow=classic;startArrow=classic;html=1;rounded=0;entryX=0.25;entryY=1;entryDx=0;entryDy=0;exitX=0.25;exitY=0;exitDx=0;exitDy=0;strokeWidth=3;" parent="1" source="PO0unFIX-wsbpKIqG6Li-44" target="PO0unFIX-wsbpKIqG6Li-43" edge="1">
          <mxGeometry width="50" height="50" relative="1" as="geometry">
            <mxPoint x="234" y="888" as="sourcePoint" />
            <mxPoint x="234" y="848" as="targetPoint" />
          </mxGeometry>
        </mxCell>
        <mxCell id="PO0unFIX-wsbpKIqG6Li-49" value="" style="endArrow=classic;startArrow=classic;html=1;rounded=0;exitX=0.25;exitY=0;exitDx=0;exitDy=0;strokeWidth=3;" parent="1" source="PO0unFIX-wsbpKIqG6Li-37" edge="1">
          <mxGeometry width="50" height="50" relative="1" as="geometry">
            <mxPoint x="380" y="620" as="sourcePoint" />
            <mxPoint x="175" y="360" as="targetPoint" />
          </mxGeometry>
        </mxCell>
        <mxCell id="PO0unFIX-wsbpKIqG6Li-50" value="port:80(HTTP)" style="text;html=1;strokeColor=none;fillColor=none;align=left;verticalAlign=middle;whiteSpace=wrap;rounded=0;fontSize=14;fontStyle=1" parent="1" vertex="1">
          <mxGeometry x="187" y="387" width="113" height="30" as="geometry" />
        </mxCell>
        <mxCell id="PO0unFIX-wsbpKIqG6Li-51" value="port:8000(uWSGI)" style="text;html=1;strokeColor=none;fillColor=none;align=left;verticalAlign=middle;whiteSpace=wrap;rounded=0;fontSize=14;fontStyle=1" parent="1" vertex="1">
          <mxGeometry x="187" y="634" width="133" height="30" as="geometry" />
        </mxCell>
        <mxCell id="PO0unFIX-wsbpKIqG6Li-52" value="port:5432(DB)" style="text;html=1;strokeColor=none;fillColor=none;align=left;verticalAlign=middle;whiteSpace=wrap;rounded=0;fontSize=14;fontStyle=1" parent="1" vertex="1">
          <mxGeometry x="187" y="825" width="103" height="30" as="geometry" />
        </mxCell>
        <mxCell id="PO0unFIX-wsbpKIqG6Li-53" value="&lt;div&gt;&lt;span style=&quot;background-color: initial;&quot;&gt;/etc/nginx/conf.d&lt;/span&gt;&lt;br&gt;&lt;/div&gt;&lt;div&gt;/etc/nginx/uwsgi_params&lt;/div&gt;&lt;div&gt;/static&lt;/div&gt;" style="text;html=1;strokeColor=none;fillColor=none;align=left;verticalAlign=top;whiteSpace=wrap;rounded=0;fontFamily=Lucida Console;" parent="1" vertex="1">
          <mxGeometry x="240.84" y="505" width="160" height="55" as="geometry" />
        </mxCell>
        <mxCell id="PO0unFIX-wsbpKIqG6Li-54" value="&lt;div&gt;&lt;span style=&quot;background-color: initial;&quot;&gt;/app&lt;/span&gt;&lt;br&gt;&lt;/div&gt;├/djangoapp&lt;br&gt;│├/db.sqllit3&lt;br&gt;│├/djangoapp&lt;br style=&quot;border-color: var(--border-color);&quot;&gt;│├/static&lt;br&gt;│└/todoapp&lt;br&gt;&lt;span style=&quot;background-color: initial;&quot;&gt;├/startup&lt;/span&gt;&lt;br&gt;└&lt;span style=&quot;background-color: initial;&quot;&gt;/wsgi&lt;/span&gt;&lt;br&gt;&lt;div&gt;&lt;br&gt;&lt;/div&gt;" style="text;html=1;strokeColor=none;fillColor=none;align=left;verticalAlign=top;whiteSpace=wrap;rounded=0;fontFamily=Lucida Console;" parent="1" vertex="1">
          <mxGeometry x="244.83999999999997" y="692" width="130" height="140" as="geometry" />
        </mxCell>
        <mxCell id="PO0unFIX-wsbpKIqG6Li-55" value="" style="curved=1;endArrow=classic;html=1;rounded=0;exitX=0;exitY=0.5;exitDx=0;exitDy=0;entryX=1;entryY=0.5;entryDx=0;entryDy=0;strokeColor=#A5B1BA;strokeWidth=4;startArrow=classic;startFill=1;" parent="1" source="PO0unFIX-wsbpKIqG6Li-62" target="PO0unFIX-wsbpKIqG6Li-34" edge="1">
          <mxGeometry width="50" height="50" relative="1" as="geometry">
            <mxPoint x="504" y="927" as="sourcePoint" />
            <mxPoint x="440" y="497" as="targetPoint" />
            <Array as="points">
              <mxPoint x="480" y="927" />
              <mxPoint x="470" y="710" />
              <mxPoint x="490" y="499" />
            </Array>
          </mxGeometry>
        </mxCell>
        <mxCell id="PO0unFIX-wsbpKIqG6Li-56" value="" style="curved=1;endArrow=classic;html=1;rounded=0;exitX=0;exitY=0.5;exitDx=0;exitDy=0;entryX=1;entryY=0.25;entryDx=0;entryDy=0;strokeColor=#BECBDB;strokeWidth=4;startArrow=classic;startFill=1;" parent="1" source="PO0unFIX-wsbpKIqG6Li-64" target="PO0unFIX-wsbpKIqG6Li-33" edge="1">
          <mxGeometry width="50" height="50" relative="1" as="geometry">
            <mxPoint x="350" y="619" as="sourcePoint" />
            <mxPoint x="400" y="569" as="targetPoint" />
            <Array as="points">
              <mxPoint x="480" y="910" />
              <mxPoint x="520" y="560" />
              <mxPoint x="510" y="500" />
            </Array>
          </mxGeometry>
        </mxCell>
        <mxCell id="PO0unFIX-wsbpKIqG6Li-57" value="" style="curved=1;endArrow=classic;html=1;rounded=0;exitX=0;exitY=0.5;exitDx=0;exitDy=0;entryX=1;entryY=0.5;entryDx=0;entryDy=0;strokeColor=#DBB8B6;strokeWidth=4;startArrow=classic;startFill=1;" parent="1" source="PO0unFIX-wsbpKIqG6Li-36" target="PO0unFIX-wsbpKIqG6Li-32" edge="1">
          <mxGeometry width="50" height="50" relative="1" as="geometry">
            <mxPoint x="350" y="619" as="sourcePoint" />
            <mxPoint x="400" y="569" as="targetPoint" />
            <Array as="points">
              <mxPoint x="440" y="627" />
              <mxPoint x="510" y="560" />
              <mxPoint x="490" y="530" />
            </Array>
          </mxGeometry>
        </mxCell>
        <mxCell id="PO0unFIX-wsbpKIqG6Li-58" value="" style="curved=1;endArrow=classic;html=1;rounded=0;entryX=1;entryY=0.5;entryDx=0;entryDy=0;strokeColor=#dab8b7;strokeWidth=4;" parent="1" target="PO0unFIX-wsbpKIqG6Li-31" edge="1">
          <mxGeometry width="50" height="50" relative="1" as="geometry">
            <mxPoint x="510" y="626" as="sourcePoint" />
            <mxPoint x="400" y="569" as="targetPoint" />
            <Array as="points">
              <mxPoint x="440" y="619" />
              <mxPoint x="480" y="729" />
            </Array>
          </mxGeometry>
        </mxCell>
        <mxCell id="PO0unFIX-wsbpKIqG6Li-59" value="" style="curved=1;endArrow=classic;html=1;rounded=0;exitX=0;exitY=0.5;exitDx=0;exitDy=0;entryX=1;entryY=0.5;entryDx=0;entryDy=0;strokeColor=#C3D4C2;strokeWidth=4;startArrow=classic;startFill=1;" parent="1" source="PO0unFIX-wsbpKIqG6Li-35" target="PO0unFIX-wsbpKIqG6Li-28" edge="1">
          <mxGeometry width="50" height="50" relative="1" as="geometry">
            <mxPoint x="350" y="619" as="sourcePoint" />
            <mxPoint x="400" y="569" as="targetPoint" />
            <Array as="points">
              <mxPoint x="480" y="799" />
              <mxPoint x="470" y="763" />
            </Array>
          </mxGeometry>
        </mxCell>
        <mxCell id="PO0unFIX-wsbpKIqG6Li-60" value="" style="curved=1;endArrow=classic;html=1;rounded=0;exitX=0;exitY=0.5;exitDx=0;exitDy=0;entryX=1;entryY=0.5;entryDx=0;entryDy=0;strokeColor=#CABFCF;strokeWidth=3;startArrow=classic;startFill=1;endFill=1;" parent="1" source="PO0unFIX-wsbpKIqG6Li-65" target="PO0unFIX-wsbpKIqG6Li-29" edge="1">
          <mxGeometry width="50" height="50" relative="1" as="geometry">
            <mxPoint x="350" y="619" as="sourcePoint" />
            <mxPoint x="400" y="569" as="targetPoint" />
            <Array as="points">
              <mxPoint x="480" y="849" />
              <mxPoint x="470" y="779" />
            </Array>
          </mxGeometry>
        </mxCell>
        <mxCell id="PO0unFIX-wsbpKIqG6Li-61" value="" style="group" parent="1" vertex="1" connectable="0">
          <mxGeometry x="540" y="505" width="170" height="430" as="geometry" />
        </mxCell>
        <mxCell id="PO0unFIX-wsbpKIqG6Li-62" value="" style="rounded=0;whiteSpace=wrap;html=1;labelBackgroundColor=#CCE5FF;noLabel=1;fillColor=#bac8d3;strokeColor=none;" parent="PO0unFIX-wsbpKIqG6Li-61" vertex="1">
          <mxGeometry y="414" width="170" height="16" as="geometry" />
        </mxCell>
        <mxCell id="PO0unFIX-wsbpKIqG6Li-63" value="" style="rounded=0;whiteSpace=wrap;html=1;labelBackgroundColor=#CCE5FF;noLabel=1;fillColor=#fff2cc;strokeColor=none;" parent="PO0unFIX-wsbpKIqG6Li-61" vertex="1">
          <mxGeometry width="170" height="274" as="geometry" />
        </mxCell>
        <mxCell id="PO0unFIX-wsbpKIqG6Li-64" value="" style="rounded=0;whiteSpace=wrap;html=1;labelBackgroundColor=#CCE5FF;noLabel=1;fillColor=#dae8fc;strokeColor=none;" parent="PO0unFIX-wsbpKIqG6Li-61" vertex="1">
          <mxGeometry y="388" width="170" height="27" as="geometry" />
        </mxCell>
        <mxCell id="PO0unFIX-wsbpKIqG6Li-65" value="" style="rounded=0;whiteSpace=wrap;html=1;labelBackgroundColor=#CCE5FF;noLabel=1;fillColor=#e1d5e7;strokeColor=none;" parent="PO0unFIX-wsbpKIqG6Li-61" vertex="1">
          <mxGeometry y="314" width="170" height="60" as="geometry" />
        </mxCell>
        <mxCell id="PO0unFIX-wsbpKIqG6Li-66" value="&lt;div&gt;/containers&lt;/div&gt;&lt;div&gt;&amp;nbsp;├/django&lt;/div&gt;&amp;nbsp;│├/djangoapp&lt;br&gt;&amp;nbsp;││├/db.sqllit3&lt;br&gt;&amp;nbsp;││├/djangoapp&lt;br style=&quot;border-color: var(--border-color);&quot;&gt;&amp;nbsp;│││├settins.py&lt;br style=&quot;border-color: var(--border-color);&quot;&gt;&amp;nbsp;│││├urls.py&lt;br style=&quot;border-color: var(--border-color);&quot;&gt;&amp;nbsp;│││└wsgi.py&lt;br&gt;&amp;nbsp;││├/static&lt;br&gt;&amp;nbsp;│││└/admin&lt;br style=&quot;border-color: var(--border-color);&quot;&gt;&amp;nbsp;│││&amp;nbsp; ├/css&lt;br style=&quot;border-color: var(--border-color);&quot;&gt;&amp;nbsp;│││&amp;nbsp; ├/img&lt;br style=&quot;border-color: var(--border-color);&quot;&gt;&amp;nbsp;│││&amp;nbsp; └/js&lt;br&gt;&amp;nbsp;││└/todoapp&lt;br&gt;&amp;nbsp;││ ├admin.py&lt;br&gt;&amp;nbsp;││ ├apps.py&lt;br&gt;&amp;nbsp;││ ├/migrations&lt;br&gt;&amp;nbsp;││ ├models.py&lt;br&gt;&amp;nbsp;││ ├tests.py&lt;br style=&quot;border-color: var(--border-color);&quot;&gt;&amp;nbsp;││ ├urls.py&lt;br style=&quot;border-color: var(--border-color);&quot;&gt;&amp;nbsp;││ └views.py&lt;br&gt;&lt;div&gt;&amp;nbsp;│├/startup&lt;/div&gt;&lt;div&gt;&amp;nbsp;││├setuser.sh&lt;/div&gt;&lt;div&gt;&amp;nbsp;││└startup.sh&lt;/div&gt;&lt;div&gt;&amp;nbsp;│├/uwsgi&lt;/div&gt;&lt;div&gt;&amp;nbsp;││└wusgi.ini&lt;/div&gt;&lt;div&gt;&amp;nbsp;│├Dockerfile&lt;/div&gt;&lt;div&gt;&amp;nbsp;│└requirements.txt&lt;/div&gt;&lt;div&gt;&amp;nbsp;├/nginx&lt;/div&gt;&lt;div&gt;&amp;nbsp;│├/conf&lt;/div&gt;&lt;div&gt;&amp;nbsp;││└nginx.conf&lt;/div&gt;&lt;div&gt;&lt;span style=&quot;background-color: initial;&quot;&gt;&amp;nbsp;│└uwsgi_params&lt;/span&gt;&lt;/div&gt;&lt;div&gt;&amp;nbsp;└docker-compose.yml&lt;/div&gt;" style="text;html=1;strokeColor=none;fillColor=none;align=left;verticalAlign=top;whiteSpace=wrap;rounded=0;fontFamily=Lucida Console;" parent="1" vertex="1">
          <mxGeometry x="516" y="469" width="200" height="491" as="geometry" />
        </mxCell>
        <mxCell id="PO0unFIX-wsbpKIqG6Li-67" value="" style="endArrow=classic;startArrow=classic;html=1;rounded=0;exitX=0.663;exitY=-0.002;exitDx=0;exitDy=0;exitPerimeter=0;strokeWidth=3;" parent="1" edge="1">
          <mxGeometry width="50" height="50" relative="1" as="geometry">
            <mxPoint x="540.99407" y="418.74" as="sourcePoint" />
            <mxPoint x="540" y="360" as="targetPoint" />
          </mxGeometry>
        </mxCell>
        <mxCell id="PO0unFIX-wsbpKIqG6Li-68" value="port:22(SSH)" style="text;html=1;strokeColor=none;fillColor=none;align=left;verticalAlign=middle;whiteSpace=wrap;rounded=0;fontSize=14;fontStyle=1" parent="1" vertex="1">
          <mxGeometry x="556" y="387" width="104" height="30" as="geometry" />
        </mxCell>
      </root>
    </mxGraphModel>
  </diagram>
</mxfile>
